<svg width="128" height="38" viewBox="0 0 128 38" fill="none" xmlns="http://www.w3.org/2000/svg">
<path d="M0 38C0 17.0132 17.0132 0 38 0H128V0C128 20.9868 110.987 38 90 38H0V38Z" fill="#2563EB"/>
<path d="M19.84 13.1C19.8533 12.9933 19.8933 12.92 19.96 12.88C20.04 12.8267 20.1133 12.8 20.18 12.8C21.0867 12.8 21.9333 12.7733 22.72 12.72C23.52 12.6533 24.1467 12.62 24.6 12.62C25.7333 12.62 26.68 12.7333 27.44 12.96C28.2133 13.1867 28.8333 13.54 29.3 14.02C29.78 14.5 30.12 15.12 30.32 15.88C30.52 16.64 30.62 17.5533 30.62 18.62C30.62 19.7 30.5067 20.76 30.28 21.8C30.0667 22.8267 29.6867 23.74 29.14 24.54C28.5933 25.34 27.8533 25.9867 26.92 26.48C26 26.96 24.8333 27.2 23.42 27.2C22.7667 27.2 22.1667 27.1867 21.62 27.16C21.0867 27.1333 20.6267 27.0533 20.24 26.92C19.8533 26.7867 19.5533 26.5867 19.34 26.32C19.1267 26.0533 19.02 25.6867 19.02 25.22C19.02 25.0467 19.0267 24.7867 19.04 24.44C19.0667 24.0933 19.0933 23.68 19.12 23.2C19.16 22.72 19.2 22.1933 19.24 21.62C19.2933 21.0333 19.3467 20.42 19.4 19.78C19.5067 18.46 19.5867 17.4067 19.64 16.62C19.7067 15.8333 19.7467 15.22 19.76 14.78C19.7867 14.3267 19.8 13.9867 19.8 13.76C19.8133 13.5333 19.8267 13.3133 19.84 13.1ZM23.56 24.04C24.3067 24.04 24.9 23.88 25.34 23.56C25.7933 23.24 26.14 22.8333 26.38 22.34C26.62 21.8467 26.78 21.3067 26.86 20.72C26.94 20.1333 26.98 19.58 26.98 19.06C26.98 18.5 26.94 18.0133 26.86 17.6C26.7933 17.1733 26.6667 16.82 26.48 16.54C26.3067 16.26 26.06 16.0533 25.74 15.92C25.42 15.7733 25.02 15.7 24.54 15.7C24.3933 15.7 24.2067 15.7067 23.98 15.72C23.7533 15.7333 23.48 15.7533 23.16 15.78C23.1333 16.2733 23.1 16.86 23.06 17.54C23.02 18.2067 22.9733 18.9133 22.92 19.66C22.88 20.3933 22.8333 21.14 22.78 21.9C22.7267 22.6467 22.6733 23.34 22.62 23.98C22.82 24.0067 23 24.0267 23.16 24.04C23.32 24.04 23.4533 24.04 23.56 24.04ZM35.3603 27.2C34.7736 27.2 34.187 27.1267 33.6003 26.98C33.027 26.8333 32.507 26.58 32.0403 26.22C31.587 25.86 31.2136 25.38 30.9203 24.78C30.627 24.18 30.4803 23.4267 30.4803 22.52C30.4803 22.1867 30.507 21.7867 30.5603 21.32C30.6136 20.8533 30.7136 20.3733 30.8603 19.88C31.0203 19.3867 31.2336 18.9 31.5003 18.42C31.7803 17.9267 32.1403 17.4867 32.5803 17.1C33.0203 16.7133 33.5536 16.4 34.1803 16.16C34.807 15.92 35.5536 15.8 36.4203 15.8C37.1136 15.8 37.7003 15.88 38.1803 16.04C38.6603 16.2 39.047 16.42 39.3403 16.7C39.6336 16.9667 39.847 17.28 39.9803 17.64C40.1136 18 40.1803 18.3867 40.1803 18.8C40.1803 19.4133 40.0536 19.9333 39.8003 20.36C39.5603 20.7867 39.2403 21.1467 38.8403 21.44C38.4536 21.72 38.0203 21.94 37.5403 22.1C37.0603 22.26 36.587 22.3867 36.1203 22.48C35.6536 22.56 35.2203 22.6133 34.8203 22.64C34.4336 22.6533 34.1336 22.66 33.9203 22.66C33.9203 22.9133 33.9536 23.1667 34.0203 23.42C34.1003 23.66 34.2136 23.8733 34.3603 24.06C34.507 24.2467 34.7003 24.4 34.9403 24.52C35.1803 24.64 35.4736 24.7 35.8203 24.7C36.167 24.7 36.4336 24.6467 36.6203 24.54C36.8203 24.42 36.9803 24.2933 37.1003 24.16C37.2203 24.0133 37.3203 23.8867 37.4003 23.78C37.4936 23.66 37.6136 23.6 37.7603 23.6C37.827 23.6 37.9403 23.62 38.1003 23.66C38.2736 23.6867 38.447 23.7533 38.6203 23.86C38.7936 23.9667 38.947 24.1133 39.0803 24.3C39.2136 24.4867 39.2803 24.7267 39.2803 25.02C39.2803 25.4067 39.1603 25.74 38.9203 26.02C38.6803 26.3 38.367 26.5267 37.9803 26.7C37.607 26.8733 37.187 27 36.7203 27.08C36.2536 27.16 35.8003 27.2 35.3603 27.2ZM35.7403 18.46C35.447 18.46 35.1936 18.5467 34.9803 18.72C34.7803 18.88 34.607 19.0867 34.4603 19.34C34.327 19.5933 34.2203 19.8733 34.1403 20.18C34.0736 20.4867 34.0203 20.78 33.9803 21.06C34.807 21.0467 35.4736 20.9067 35.9803 20.64C36.5003 20.3733 36.7603 19.9933 36.7603 19.5C36.7603 19.2333 36.6736 18.9933 36.5003 18.78C36.3403 18.5667 36.087 18.46 35.7403 18.46ZM44.5648 24.46C44.7248 23.9 44.8715 23.3467 45.0048 22.8C45.1515 22.2533 45.2915 21.6733 45.4248 21.06C45.5715 20.4333 45.7248 19.7533 45.8848 19.02C46.0582 18.2733 46.2582 17.4267 46.4848 16.48C46.5248 16.2933 46.5848 16.1733 46.6648 16.12C46.7448 16.0533 46.9182 16.02 47.1848 16.02C47.3848 16.02 47.6515 16.0267 47.9848 16.04C48.3182 16.0533 48.6448 16.1 48.9648 16.18C49.2848 16.26 49.5582 16.38 49.7848 16.54C50.0248 16.7 50.1448 16.92 50.1448 17.2C50.1448 17.4267 50.0648 17.7933 49.9048 18.3C49.7448 18.8067 49.5382 19.3867 49.2848 20.04C49.0315 20.68 48.7448 21.3533 48.4248 22.06C48.1182 22.7667 47.8182 23.4333 47.5248 24.06C47.2315 24.6867 46.9582 25.24 46.7048 25.72C46.4515 26.1867 46.2648 26.5133 46.1448 26.7C46.0382 26.8467 45.9448 26.9333 45.8648 26.96C45.7848 26.9867 45.6515 27 45.4648 27H43.6848C43.4048 27 43.1715 26.9533 42.9848 26.86C42.8115 26.7533 42.6648 26.62 42.5448 26.46C42.4248 26.3 42.3248 26.12 42.2448 25.92C42.1648 25.7067 42.0915 25.4867 42.0248 25.26C41.6382 23.9267 41.2982 22.7867 41.0048 21.84C40.7248 20.88 40.4848 20.08 40.2848 19.44C40.0848 18.8 39.9248 18.2933 39.8048 17.92C39.6848 17.5333 39.5915 17.24 39.5248 17.04C39.4582 16.8267 39.4115 16.6867 39.3848 16.62C39.3582 16.54 39.3448 16.4867 39.3448 16.46C39.3582 16.3667 39.4248 16.2667 39.5448 16.16C39.6648 16.0533 39.8182 16 40.0048 16C40.6182 16 41.1382 16.0267 41.5648 16.08C42.0048 16.12 42.3648 16.2 42.6448 16.32C42.9382 16.44 43.1582 16.6067 43.3048 16.82C43.4648 17.0333 43.5782 17.3133 43.6448 17.66C43.6582 17.7533 43.6848 17.94 43.7248 18.22C43.7648 18.5 43.8048 18.84 43.8448 19.24C43.8982 19.6267 43.9582 20.06 44.0248 20.54C44.0915 21.0067 44.1515 21.48 44.2048 21.96C44.2715 22.4267 44.3315 22.88 44.3848 23.32C44.4515 23.76 44.5115 24.14 44.5648 24.46ZM62.5391 16.34C62.4324 16.66 62.2924 17.08 62.1191 17.6C61.9591 18.1067 61.7791 18.6667 61.5791 19.28C61.3791 19.8933 61.1724 20.5467 60.9591 21.24C60.7457 21.92 60.5257 22.5867 60.2991 23.24C60.0857 23.8933 59.8724 24.52 59.6591 25.12C59.4457 25.7067 59.2524 26.22 59.0791 26.66C59.0257 26.7667 58.9124 26.8533 58.7391 26.92C58.5791 26.9733 58.3191 27 57.9591 27C57.7324 27 57.4991 26.9867 57.2591 26.96C57.0191 26.9333 56.7924 26.88 56.5791 26.8C56.3791 26.72 56.1991 26.6133 56.0391 26.48C55.8924 26.3467 55.7791 26.18 55.6991 25.98C55.4991 25.3 55.3057 24.5467 55.1191 23.72C54.9457 22.88 54.7724 22.0267 54.5991 21.16C54.4257 20.2933 54.2524 19.4467 54.0791 18.62C53.9191 17.78 53.7524 17.02 53.5791 16.34C53.5791 16.5267 53.5724 16.8467 53.5591 17.3C53.5457 17.7533 53.5324 18.28 53.5191 18.88C53.5057 19.48 53.4857 20.1267 53.4591 20.82C53.4457 21.5133 53.4324 22.1933 53.4191 22.86C53.4057 23.5133 53.3924 24.1267 53.3791 24.7C53.3657 25.26 53.3591 25.72 53.3591 26.08C53.3591 26.48 53.3324 26.7333 53.2791 26.84C53.2391 26.9467 53.1591 27 53.0391 27H51.9391C51.1791 27 50.6391 26.8533 50.3191 26.56C50.0124 26.2533 49.8591 25.8067 49.8591 25.22C49.8591 25.06 49.8657 24.7933 49.8791 24.42C49.9057 24.0333 49.9391 23.58 49.9791 23.06C50.0191 22.54 50.0591 21.9733 50.0991 21.36C50.1524 20.7333 50.2057 20.1 50.2591 19.46C50.3257 18.5933 50.3791 17.8733 50.4191 17.3C50.4724 16.7133 50.5124 16.2267 50.5391 15.84C50.5657 15.4533 50.5857 15.14 50.5991 14.9C50.6257 14.66 50.6391 14.4467 50.6391 14.26C50.6524 14.0733 50.6591 13.9 50.6591 13.74C50.6724 13.5667 50.6791 13.3533 50.6791 13.1C50.6791 12.9933 50.7191 12.92 50.7991 12.88C50.8791 12.8267 50.9524 12.8 51.0191 12.8H53.8191C54.3391 12.8 54.7657 12.8867 55.0991 13.06C55.4324 13.22 55.7057 13.4733 55.9191 13.82C56.1324 14.1667 56.3057 14.62 56.4391 15.18C56.5724 15.7267 56.6924 16.38 56.7991 17.14C56.9191 17.9 57.0457 18.78 57.1791 19.78C57.3257 20.7667 57.5124 21.88 57.7391 23.12C57.9524 22.2933 58.1324 21.6067 58.2791 21.06C58.4257 20.5133 58.5457 20.06 58.6391 19.7C58.7457 19.3267 58.8324 19.02 58.8991 18.78C58.9657 18.54 59.0257 18.32 59.0791 18.12C59.1324 17.9067 59.1924 17.68 59.2591 17.44C59.3257 17.2 59.4057 16.9 59.4991 16.54C59.5924 16.18 59.7057 15.7333 59.8391 15.2C59.9857 14.6533 60.1657 13.9667 60.3791 13.14C60.4057 13.06 60.4524 12.9867 60.5191 12.92C60.5857 12.84 60.7057 12.8 60.8791 12.8H63.9991C64.4257 12.8 64.7657 12.8467 65.0191 12.94C65.2857 13.02 65.4924 13.14 65.6391 13.3C65.7857 13.46 65.8857 13.66 65.9391 13.9C65.9924 14.1267 66.0191 14.3933 66.0191 14.7C66.0191 15.0067 65.9991 15.5067 65.9591 16.2C65.9324 16.88 65.8857 17.6533 65.8191 18.52C65.7657 19.3733 65.7057 20.26 65.6391 21.18C65.5857 22.1 65.5257 22.9533 65.4591 23.74C65.4057 24.5267 65.3591 25.1933 65.3191 25.74C65.2791 26.2867 65.2524 26.6067 65.2391 26.7C65.2257 26.8067 65.1991 26.8867 65.1591 26.94C65.1191 26.98 65.0391 27 64.9191 27H63.8191C63.0591 27 62.5191 26.8533 62.1991 26.56C61.8924 26.2533 61.7391 25.86 61.7391 25.38C61.7391 25.2333 61.7524 24.9667 61.7791 24.58C61.8191 24.1933 61.8657 23.74 61.9191 23.22C61.9724 22.7 62.0324 22.1333 62.0991 21.52C62.1657 20.8933 62.2257 20.2733 62.2791 19.66C62.3324 19.0467 62.3791 18.4533 62.4191 17.88C62.4724 17.2933 62.5124 16.78 62.5391 16.34Z" fill="#FAFAFA"/>
<path d="M80.12 18.7C80.08 19.2067 80.0333 19.7067 79.98 20.2C79.94 20.6933 79.9 21.16 79.86 21.6C79.82 22.04 79.7867 22.4333 79.76 22.78C79.7467 23.1267 79.74 23.3933 79.74 23.58C79.74 23.9267 79.78 24.16 79.86 24.28C79.94 24.3867 80.0733 24.44 80.26 24.44C80.4067 24.44 80.5333 24.4133 80.64 24.36C80.7467 24.3067 80.8467 24.2467 80.94 24.18C81.0333 24.1133 81.1133 24.0533 81.18 24C81.26 23.9467 81.3467 23.92 81.44 23.92C81.5333 23.92 81.62 23.9733 81.7 24.08C81.78 24.1867 81.82 24.4333 81.82 24.82C81.82 25.5533 81.62 26.1333 81.22 26.56C80.82 26.9867 80.1333 27.2 79.16 27.2C78.2 27.2 77.4867 26.98 77.02 26.54C76.5667 26.0867 76.34 25.4 76.34 24.48C76.34 24.28 76.3467 24.0467 76.36 23.78C76.3867 23.5 76.42 23.14 76.46 22.7C76.5 22.26 76.5467 21.72 76.6 21.08C76.6667 20.44 76.7333 19.6467 76.8 18.7H75.74C75.6333 18.7 75.5667 18.68 75.54 18.64C75.5267 18.5867 75.52 18.5133 75.52 18.42L75.58 17.4C75.5933 17.2267 75.6133 17.06 75.64 16.9C75.68 16.7267 75.7467 16.5733 75.84 16.44C75.9467 16.3067 76.0933 16.2 76.28 16.12C76.4667 16.04 76.7133 16 77.02 16C77.1133 15.76 77.22 15.4733 77.34 15.14C77.46 14.8067 77.58 14.4867 77.7 14.18C77.82 13.86 77.9333 13.5933 78.04 13.38C78.16 13.1667 78.2667 13.06 78.36 13.06H78.94C79.5 13.06 79.8867 13.2333 80.1 13.58C80.3133 13.9267 80.42 14.34 80.42 14.82C80.42 15.0867 80.4 15.48 80.36 16H82.46C82.6733 16 82.78 16.0933 82.78 16.28L82.7 17.36C82.6733 17.76 82.56 18.0867 82.36 18.34C82.1733 18.58 81.78 18.7 81.18 18.7H80.12ZM86.7516 27.2C85.8316 27.2 85.0649 27.0733 84.4516 26.82C83.8516 26.5533 83.3716 26.1933 83.0116 25.74C82.6516 25.2867 82.3982 24.76 82.2516 24.16C82.1049 23.5467 82.0316 22.8933 82.0316 22.2C82.0316 21.4 82.1249 20.62 82.3116 19.86C82.5116 19.0867 82.8449 18.4 83.3116 17.8C83.7782 17.2 84.3916 16.72 85.1516 16.36C85.9249 15.9867 86.8849 15.8 88.0316 15.8C89.7116 15.8 90.9116 16.2133 91.6316 17.04C92.3649 17.8533 92.7316 19 92.7316 20.48C92.7316 20.8933 92.6982 21.3533 92.6316 21.86C92.5782 22.3533 92.4649 22.8467 92.2916 23.34C92.1316 23.8333 91.9049 24.3133 91.6116 24.78C91.3316 25.2467 90.9716 25.66 90.5316 26.02C90.0916 26.38 89.5582 26.6667 88.9316 26.88C88.3182 27.0933 87.5916 27.2 86.7516 27.2ZM87.6916 18.46C87.1849 18.46 86.7782 18.5933 86.4716 18.86C86.1782 19.1133 85.9516 19.4267 85.7916 19.8C85.6449 20.16 85.5449 20.5467 85.4916 20.96C85.4516 21.36 85.4316 21.7 85.4316 21.98C85.4316 22.86 85.5716 23.5067 85.8516 23.92C86.1316 24.3333 86.5316 24.54 87.0516 24.54C87.5182 24.54 87.8982 24.3933 88.1916 24.1C88.4982 23.8067 88.7316 23.4533 88.8916 23.04C89.0649 22.6267 89.1782 22.1933 89.2316 21.74C89.2982 21.2867 89.3316 20.9067 89.3316 20.6C89.3316 19.9333 89.2049 19.4133 88.9516 19.04C88.7116 18.6533 88.2916 18.46 87.6916 18.46ZM99.2847 20.78C99.2047 20.78 99.1114 20.78 99.0047 20.78C98.9114 20.7667 98.818 20.7533 98.7247 20.74C98.6314 20.7133 98.5514 20.6867 98.4847 20.66C98.418 20.62 98.3847 20.5733 98.3847 20.52C98.3847 20.3467 98.3914 20.1867 98.4047 20.04C98.418 19.8933 98.4247 19.74 98.4247 19.58C98.4247 19.2867 98.3847 19.0467 98.3047 18.86C98.2247 18.6733 98.0647 18.58 97.8247 18.58C97.4514 18.58 97.138 18.8267 96.8847 19.32C96.6447 19.8 96.4914 20.5267 96.4247 21.5C96.398 21.9267 96.358 22.4133 96.3047 22.96C96.2647 23.4933 96.2247 24.0133 96.1847 24.52C96.1447 25.0133 96.1114 25.4533 96.0847 25.84C96.058 26.2267 96.0447 26.48 96.0447 26.6C96.0447 26.7333 95.998 26.8333 95.9047 26.9C95.8114 26.9667 95.7114 27 95.6047 27H94.8847C94.4714 27 94.1314 26.96 93.8647 26.88C93.6114 26.7867 93.4047 26.66 93.2447 26.5C93.098 26.34 92.9914 26.1467 92.9247 25.92C92.8714 25.68 92.8447 25.4067 92.8447 25.1C92.8447 24.9 92.8514 24.62 92.8647 24.26C92.8914 23.8867 92.9314 23.38 92.9847 22.74C93.038 22.0867 93.098 21.2667 93.1647 20.28C93.2447 19.28 93.338 18.0467 93.4447 16.58C93.4714 16.1933 93.6114 16 93.8647 16H94.6447C95.018 16 95.3314 16.04 95.5847 16.12C95.838 16.2 96.0447 16.3133 96.2047 16.46C96.3647 16.5933 96.478 16.7533 96.5447 16.94C96.6247 17.1267 96.678 17.32 96.7047 17.52C96.8647 17.2133 97.0514 16.9533 97.2647 16.74C97.4914 16.5133 97.7247 16.3333 97.9647 16.2C98.2047 16.0533 98.4514 15.9533 98.7047 15.9C98.958 15.8333 99.1914 15.8 99.4047 15.8C99.658 15.8 99.9114 15.8467 100.165 15.94C100.431 16.0333 100.671 16.1733 100.885 16.36C101.098 16.5467 101.265 16.7867 101.385 17.08C101.518 17.3733 101.585 17.72 101.585 18.12C101.585 18.48 101.531 18.82 101.425 19.14C101.318 19.46 101.165 19.7467 100.965 20C100.765 20.24 100.518 20.4333 100.225 20.58C99.9447 20.7133 99.6314 20.78 99.2847 20.78ZM105.655 15.8C106.788 15.8 107.622 16.0267 108.155 16.48C108.688 16.92 108.955 17.4867 108.955 18.18C108.955 18.7667 108.768 19.2133 108.395 19.52C108.035 19.8267 107.508 19.98 106.815 19.98C106.628 19.98 106.502 19.96 106.435 19.92C106.368 19.88 106.335 19.8067 106.335 19.7C106.335 19.58 106.322 19.4467 106.295 19.3C106.282 19.14 106.235 18.9933 106.155 18.86C106.088 18.7133 105.975 18.5933 105.815 18.5C105.668 18.4067 105.455 18.36 105.175 18.36C104.802 18.36 104.502 18.4533 104.275 18.64C104.048 18.8133 103.935 19.0333 103.935 19.3C103.935 19.58 104.048 19.8067 104.275 19.98C104.515 20.14 104.808 20.2933 105.155 20.44C105.515 20.5867 105.902 20.74 106.315 20.9C106.728 21.0467 107.108 21.2467 107.455 21.5C107.815 21.7533 108.108 22.0733 108.335 22.46C108.575 22.8333 108.695 23.32 108.695 23.92C108.695 24.88 108.355 25.6667 107.675 26.28C106.995 26.8933 105.975 27.2 104.615 27.2C104.242 27.2 103.808 27.1667 103.315 27.1C102.835 27.0467 102.375 26.96 101.935 26.84C101.495 26.7067 101.122 26.5333 100.815 26.32C100.522 26.1067 100.375 25.84 100.375 25.52C100.375 25.4 100.395 25.2533 100.435 25.08C100.488 24.9067 100.562 24.74 100.655 24.58C100.762 24.42 100.882 24.2867 101.015 24.18C101.162 24.06 101.335 24 101.535 24C101.695 24 101.842 24.04 101.975 24.12C102.108 24.2 102.262 24.2867 102.435 24.38C102.622 24.46 102.848 24.54 103.115 24.62C103.382 24.7 103.735 24.74 104.175 24.74C104.508 24.74 104.802 24.7 105.055 24.62C105.322 24.54 105.455 24.36 105.455 24.08C105.455 23.8267 105.348 23.6267 105.135 23.48C104.922 23.32 104.648 23.1733 104.315 23.04C103.995 22.9067 103.642 22.7667 103.255 22.62C102.882 22.46 102.528 22.2533 102.195 22C101.875 21.7467 101.608 21.4267 101.395 21.04C101.182 20.64 101.075 20.1267 101.075 19.5C101.075 18.82 101.208 18.2467 101.475 17.78C101.755 17.3 102.108 16.9133 102.535 16.62C102.975 16.3267 103.468 16.12 104.015 16C104.562 15.8667 105.108 15.8 105.655 15.8Z" fill="#FAFAFA"/>
<g clip-path="url(#clip0_1_41)">
<path d="M71 22.1667C71.6443 22.1667 72.1666 21.6443 72.1666 21C72.1666 20.3557 71.6443 19.8333 71 19.8333C70.3556 19.8333 69.8333 20.3557 69.8333 21C69.8333 21.6443 70.3556 22.1667 71 22.1667Z" stroke="#FAFAFA"/>
<path d="M67.5 21H69.8333" stroke="#FAFAFA" stroke-linecap="round"/>
<path d="M72.1667 21H74.5" stroke="#FAFAFA" stroke-linecap="round"/>
<path d="M69.25 24.0312L70.4167 22.0104" stroke="#FAFAFA" stroke-linecap="round"/>
<path d="M71.5833 19.9897L72.75 17.969" stroke="#FAFAFA" stroke-linecap="round"/>
<path d="M72.75 24.0312L71.5833 22.0104" stroke="#FAFAFA" stroke-linecap="round"/>
<path d="M70.4167 19.9897L69.25 17.969" stroke="#FAFAFA" stroke-linecap="round"/>
<path d="M68.0834 15.9471C68.9414 15.4507 69.9375 15.1667 71 15.1667C74.2217 15.1667 76.8334 17.7783 76.8334 21C76.8334 24.2216 74.2217 26.8333 71 26.8333C67.7784 26.8333 65.1667 24.2216 65.1667 21C65.1667 19.9375 65.4508 18.9413 65.9471 18.0833" stroke="#FAFAFA" stroke-linecap="round"/>
<path d="M72.75 24.0318C72.2352 24.3295 71.6375 24.5 71 24.5C69.067 24.5 67.5 22.933 67.5 21C67.5 19.067 69.067 17.5 71 17.5C72.933 17.5 74.5 19.067 74.5 21C74.5 21.6375 74.3295 22.2352 74.0318 22.75" stroke="#FAFAFA" stroke-linecap="round"/>
</g>
<defs>
<clipPath id="clip0_1_41">
<rect width="14" height="14" fill="white" transform="translate(64 14)"/>
</clipPath>
</defs>
</svg>
